<svg id="visual" viewBox="0 0 500 200" width="500" height="200" xmlns="http://www.w3.org/2000/svg" xmlns:xlink="http://www.w3.org/1999/xlink" version="1.1"><path d="M0 80L8.3 81C16.7 82 33.3 84 50 83.8C66.7 83.7 83.3 81.3 100 80.8C116.7 80.3 133.3 81.7 150 83C166.7 84.3 183.3 85.7 200 84.2C216.7 82.7 233.3 78.3 250 78.5C266.7 78.7 283.3 83.3 300 85.7C316.7 88 333.3 88 350 85.8C366.7 83.7 383.3 79.3 400 79.8C416.7 80.3 433.3 85.7 450 86.2C466.7 86.7 483.3 82.3 491.7 80.2L500 78L500 0L491.7 0C483.3 0 466.7 0 450 0C433.3 0 416.7 0 400 0C383.3 0 366.7 0 350 0C333.3 0 316.7 0 300 0C283.3 0 266.7 0 250 0C233.3 0 216.7 0 200 0C183.3 0 166.7 0 150 0C133.3 0 116.7 0 100 0C83.3 0 66.7 0 50 0C33.3 0 16.7 0 8.3 0L0 0Z" fill="#121420"></path><path d="M0 62L8.3 63.7C16.7 65.3 33.3 68.7 50 70.2C66.7 71.7 83.3 71.3 100 71.3C116.7 71.3 133.3 71.7 150 71C166.7 70.3 183.3 68.7 200 66.8C216.7 65 233.3 63 250 63.3C266.7 63.7 283.3 66.3 300 66.2C316.7 66 333.3 63 350 62.7C366.7 62.3 383.3 64.7 400 66.5C416.7 68.3 433.3 69.7 450 69.5C466.7 69.3 483.3 67.7 491.7 66.8L500 66L500 0L491.7 0C483.3 0 466.7 0 450 0C433.3 0 416.7 0 400 0C383.3 0 366.7 0 350 0C333.3 0 316.7 0 300 0C283.3 0 266.7 0 250 0C233.3 0 216.7 0 200 0C183.3 0 166.7 0 150 0C133.3 0 116.7 0 100 0C83.3 0 66.7 0 50 0C33.3 0 16.7 0 8.3 0L0 0Z" fill="#141824"></path><path d="M0 55L8.3 55C16.7 55 33.3 55 50 55C66.7 55 83.3 55 100 53C116.7 51 133.3 47 150 45C166.7 43 183.3 43 200 42.8C216.7 42.7 233.3 42.3 250 43.8C266.7 45.3 283.3 48.7 300 50C316.7 51.3 333.3 50.7 350 51.3C366.7 52 383.3 54 400 53.7C416.7 53.3 433.3 50.7 450 50.3C466.7 50 483.3 52 491.7 53L500 54L500 0L491.7 0C483.3 0 466.7 0 450 0C433.3 0 416.7 0 400 0C383.3 0 366.7 0 350 0C333.3 0 316.7 0 300 0C283.3 0 266.7 0 250 0C233.3 0 216.7 0 200 0C183.3 0 166.7 0 150 0C133.3 0 116.7 0 100 0C83.3 0 66.7 0 50 0C33.3 0 16.7 0 8.3 0L0 0Z" fill="#171c29"></path><path d="M0 32L8.3 33.2C16.7 34.3 33.3 36.7 50 35.5C66.7 34.3 83.3 29.7 100 28.3C116.7 27 133.3 29 150 31.3C166.7 33.7 183.3 36.3 200 35.7C216.7 35 233.3 31 250 29.3C266.7 27.7 283.3 28.3 300 28.7C316.7 29 333.3 29 350 30.2C366.7 31.3 383.3 33.7 400 35.3C416.7 37 433.3 38 450 36.2C466.7 34.3 483.3 29.7 491.7 27.3L500 25L500 0L491.7 0C483.3 0 466.7 0 450 0C433.3 0 416.7 0 400 0C383.3 0 366.7 0 350 0C333.3 0 316.7 0 300 0C283.3 0 266.7 0 250 0C233.3 0 216.7 0 200 0C183.3 0 166.7 0 150 0C133.3 0 116.7 0 100 0C83.3 0 66.7 0 50 0C33.3 0 16.7 0 8.3 0L0 0Z" fill="#19202d"></path><path d="M0 15L8.3 14.8C16.7 14.7 33.3 14.3 50 15.3C66.7 16.3 83.3 18.7 100 19.2C116.7 19.7 133.3 18.3 150 17.3C166.7 16.3 183.3 15.7 200 14.8C216.7 14 233.3 13 250 14.2C266.7 15.3 283.3 18.7 300 20.3C316.7 22 333.3 22 350 19.7C366.7 17.3 383.3 12.7 400 10.3C416.7 8 433.3 8 450 9C466.7 10 483.3 12 491.7 13L500 14L500 0L491.7 0C483.3 0 466.7 0 450 0C433.3 0 416.7 0 400 0C383.3 0 366.7 0 350 0C333.3 0 316.7 0 300 0C283.3 0 266.7 0 250 0C233.3 0 216.7 0 200 0C183.3 0 166.7 0 150 0C133.3 0 116.7 0 100 0C83.3 0 66.7 0 50 0C33.3 0 16.7 0 8.3 0L0 0Z" fill="#1b2432"></path></svg>