<svg id="visual" viewBox="0 0 500 200" width="500" height="200" xmlns="http://www.w3.org/2000/svg" xmlns:xlink="http://www.w3.org/1999/xlink" version="1.1"><path d="M0 124L8.3 121.3C16.7 118.7 33.3 113.3 50 112.7C66.7 112 83.3 116 100 117.7C116.7 119.3 133.3 118.7 150 116.7C166.7 114.7 183.3 111.3 200 109.8C216.7 108.3 233.3 108.7 250 111C266.7 113.3 283.3 117.7 300 118.8C316.7 120 333.3 118 350 117.2C366.7 116.3 383.3 116.7 400 116.2C416.7 115.7 433.3 114.3 450 115.3C466.7 116.3 483.3 119.7 491.7 121.3L500 123L500 201L491.7 201C483.3 201 466.7 201 450 201C433.3 201 416.7 201 400 201C383.3 201 366.7 201 350 201C333.3 201 316.7 201 300 201C283.3 201 266.7 201 250 201C233.3 201 216.7 201 200 201C183.3 201 166.7 201 150 201C133.3 201 116.7 201 100 201C83.3 201 66.7 201 50 201C33.3 201 16.7 201 8.3 201L0 201Z" fill="#121420"></path><path d="M0 129L8.3 130.8C16.7 132.7 33.3 136.3 50 137.8C66.7 139.3 83.3 138.7 100 138C116.7 137.3 133.3 136.7 150 135C166.7 133.3 183.3 130.7 200 131.5C216.7 132.3 233.3 136.7 250 136C266.7 135.3 283.3 129.7 300 128.2C316.7 126.7 333.3 129.3 350 131.2C366.7 133 383.3 134 400 133.8C416.7 133.7 433.3 132.3 450 133C466.7 133.7 483.3 136.3 491.7 137.7L500 139L500 201L491.7 201C483.3 201 466.7 201 450 201C433.3 201 416.7 201 400 201C383.3 201 366.7 201 350 201C333.3 201 316.7 201 300 201C283.3 201 266.7 201 250 201C233.3 201 216.7 201 200 201C183.3 201 166.7 201 150 201C133.3 201 116.7 201 100 201C83.3 201 66.7 201 50 201C33.3 201 16.7 201 8.3 201L0 201Z" fill="#141824"></path><path d="M0 154L8.3 153C16.7 152 33.3 150 50 147.8C66.7 145.7 83.3 143.3 100 142.3C116.7 141.3 133.3 141.7 150 142.7C166.7 143.7 183.3 145.3 200 146.3C216.7 147.3 233.3 147.7 250 147.8C266.7 148 283.3 148 300 147.2C316.7 146.3 333.3 144.7 350 145.5C366.7 146.3 383.3 149.7 400 150.5C416.7 151.3 433.3 149.7 450 147.8C466.7 146 483.3 144 491.7 143L500 142L500 201L491.7 201C483.3 201 466.7 201 450 201C433.3 201 416.7 201 400 201C383.3 201 366.7 201 350 201C333.3 201 316.7 201 300 201C283.3 201 266.7 201 250 201C233.3 201 216.7 201 200 201C183.3 201 166.7 201 150 201C133.3 201 116.7 201 100 201C83.3 201 66.7 201 50 201C33.3 201 16.7 201 8.3 201L0 201Z" fill="#171c29"></path><path d="M0 157L8.3 158.5C16.7 160 33.3 163 50 164.3C66.7 165.7 83.3 165.3 100 165C116.7 164.7 133.3 164.3 150 163.8C166.7 163.3 183.3 162.7 200 162.2C216.7 161.7 233.3 161.3 250 160.7C266.7 160 283.3 159 300 161.2C316.7 163.3 333.3 168.7 350 171C366.7 173.3 383.3 172.7 400 170.7C416.7 168.7 433.3 165.3 450 165.7C466.7 166 483.3 170 491.7 172L500 174L500 201L491.7 201C483.3 201 466.7 201 450 201C433.3 201 416.7 201 400 201C383.3 201 366.7 201 350 201C333.3 201 316.7 201 300 201C283.3 201 266.7 201 250 201C233.3 201 216.7 201 200 201C183.3 201 166.7 201 150 201C133.3 201 116.7 201 100 201C83.3 201 66.7 201 50 201C33.3 201 16.7 201 8.3 201L0 201Z" fill="#19202d"></path><path d="M0 176L8.3 177.2C16.7 178.3 33.3 180.7 50 181.7C66.7 182.7 83.3 182.3 100 182.3C116.7 182.3 133.3 182.7 150 183C166.7 183.3 183.3 183.7 200 184C216.7 184.3 233.3 184.7 250 184.7C266.7 184.7 283.3 184.3 300 184.3C316.7 184.3 333.3 184.7 350 185.7C366.7 186.7 383.3 188.3 400 187.3C416.7 186.3 433.3 182.7 450 180.7C466.7 178.7 483.3 178.3 491.7 178.2L500 178L500 201L491.7 201C483.3 201 466.7 201 450 201C433.3 201 416.7 201 400 201C383.3 201 366.7 201 350 201C333.3 201 316.7 201 300 201C283.3 201 266.7 201 250 201C233.3 201 216.7 201 200 201C183.3 201 166.7 201 150 201C133.3 201 116.7 201 100 201C83.3 201 66.7 201 50 201C33.3 201 16.7 201 8.3 201L0 201Z" fill="#1b2432"></path></svg>